<svg xmlns="http://www.w3.org/2000/svg" viewBox="0 0 500 500"><g id="freepik--banknotes-1--inject-8"><g id="freepik--Money--inject-8"><polygon points="323.61 96.56 323.62 324.04 422.12 380.91 422.11 153.43 323.61 96.56" style="fill:#BA68C8"></polygon><polygon points="323.61 96.56 323.62 324.04 422.12 380.91 422.11 153.43 323.61 96.56" style="opacity:0.2"></polygon><path d="M416.94,371.93V156.42l-88.14-50.89V321Zm-2.6-4.49-82.95-47.89V110l82.94,47.89Z" style="opacity:0.2"></path><g style="opacity:0.2"><path d="M396.53,220.82c6.71,11.63,10.92,25.11,10.92,37.37h0c0,11.93-4.09,21.14-11.22,25.25-6.53,3.78-15,3.05-23.8-2-18.83-10.87-34.14-38.74-34.14-62.13,0-11.93,4.09-21.14,11.21-25.25,6.54-3.77,15-3.05,23.81,2S390.44,210.26,396.53,220.82Zm-45.82,35c5.94,10.28,13.88,19.07,22.6,24.1,8.25,4.76,16.08,5.49,22,2.05,6.57-3.8,10.33-12.45,10.33-23.73h0c0-22.83-14.91-50-33.25-60.6-8.25-4.76-16.08-5.49-22-2-6.57,3.79-10.34,12.44-10.34,23.72C340.05,231.25,344.16,244.42,350.71,255.77Z"></path></g><g style="opacity:0.8"><path d="M391,224c6.38,11.05,10,23.51,10,34.19,0,9.59-2.93,16.78-8,19.73-4.47,2.58-10.66,1.86-17.42-2.05-7.71-4.45-15.14-12.41-20.91-22.41-6.38-11.05-10-23.51-10-34.18,0-9.6,2.92-16.79,8-19.74,4.48-2.58,10.67-1.85,17.43,2.05C377.83,206,385.25,214,391,224Z" style="fill:#BA68C8"></path></g><path d="M410.41,172.16l-.17,62.63-1.68-4a92.89,92.89,0,0,0-5.19-10.49c-7.09-12.26-18.88-22.73-27.43-27.67-9.58-5.53-23-9-31.35-4.13a23.35,23.35,0,0,0-7.32,6.75l-1.6,2.27.16-68.57,6.51,3.75a2.31,2.31,0,0,0,3.86-2.23v-7.52L400,154.2v6.49a10.53,10.53,0,0,0,4.74,8.23Z" style="fill:#BA68C8;opacity:0.8"></path><g style="opacity:0.4"><path d="M379.45,162.51a18.46,18.46,0,0,1,2.61,8.93c0,3-1.06,5.33-2.92,6.4s-3.91.83-6.15-.47c-4.52-2.61-8.2-9.29-8.2-14.88,0-3,1.06-5.33,2.92-6.4s3.91-.83,6.16.47A16.16,16.16,0,0,1,379.45,162.51Z" style="fill:#fff"></path></g><path d="M409.94,279.9l.08,68.3-6.51-3.76a2.31,2.31,0,0,0-3.86,2.23v7.52l-53.56-31.34v-6.49a10.64,10.64,0,0,0-4.74-8.21l-5.63-3.24-.08-62.47,1.7,4.08a93.07,93.07,0,0,0,5.2,10.5C349,268.13,360,279.46,370,285.22c12.47,7.2,22.32,8.82,29.27,4.8a33.7,33.7,0,0,0,9.12-7.89Z" style="fill:#BA68C8"></path><g style="opacity:0.4"><path d="M379.7,305.52a18.57,18.57,0,0,1,2.61,8.93h0c0,3-1.06,5.33-2.92,6.4s-3.91.83-6.16-.47c-4.52-2.61-8.19-9.28-8.19-14.88,0-3,1.06-5.33,2.92-6.4s3.91-.83,6.16.47A16.24,16.24,0,0,1,379.7,305.52Z" style="fill:#fff"></path></g><path d="M422.11,251.31s.57-73.46-2.21-96.51c-30.17-18.18-60.07-35.58-93.91-53.9l-2.38,93.55Z" style="opacity:0.15"></path><polygon points="323.61 96.56 348.47 82.21 446.97 139.08 422.11 153.43 323.61 96.56" style="fill:#BA68C8"></polygon><polygon points="323.61 96.56 348.47 82.21 446.97 139.08 422.11 153.43 323.61 96.56" style="fill:#fff;opacity:0.4"></polygon><g style="opacity:0.5"><polygon points="429.2 149.33 398.67 131.05 430.46 148.61 429.2 149.33" style="fill:#BA68C8"></polygon><polygon points="335.93 89.45 346.82 95.13 336.98 88.84 335.93 89.45" style="fill:#BA68C8"></polygon><polygon points="340.88 86.59 393.47 116.08 342.4 85.71 340.88 86.59" style="fill:#BA68C8"></polygon><polygon points="434.14 146.49 383.11 116.08 435.77 145.55 434.14 146.49" style="fill:#BA68C8"></polygon></g><polygon points="446.97 139.08 446.97 366.56 422.12 380.91 422.11 153.43 446.97 139.08" style="fill:#BA68C8"></polygon><polygon points="446.97 139.08 446.97 366.56 422.12 380.91 422.11 153.43 446.97 139.08" style="fill:#fff;opacity:0.2"></polygon><g style="opacity:0.8"><polygon points="429.2 149.33 429.77 160.99 430.46 148.61 429.2 149.33" style="fill:#BA68C8"></polygon><polygon points="434.14 146.49 434.97 206.2 435.77 145.55 434.14 146.49" style="fill:#BA68C8"></polygon><polygon points="434.35 373.85 434.96 331.59 435.57 373.14 434.35 373.85" style="fill:#BA68C8"></polygon><polygon points="439.56 370.84 440.14 346.56 440.72 370.17 439.56 370.84" style="fill:#BA68C8"></polygon></g><path d="M422.11,251.31s0-.48-.09-13.21c-.25-17.86-1.09-59.28-4.41-82.08a553.52,553.52,0,0,0-107.54-52.24c7.35,29.91,12.81,59.93,13.55,90.7Z" style="fill:#BA68C8"></path><path d="M422.11,251.31s0-.48-.09-13.21c-.25-17.86-1.09-59.28-4.41-82.08a553.52,553.52,0,0,0-107.54-52.24c7.35,29.91,12.81,59.93,13.55,90.7Z" style="opacity:0.1"></path><path d="M416.91,248.31c0-30.27-.25-60.23-4.26-90.29-29.76-18.48-63.22-35.23-95-46.67,8,28.14,11.1,56.92,11.15,86.11l2.62,1.43a369.49,369.49,0,0,0-10.21-84C351,127,382.38,141.84,410.48,159.42c3.88,29.11,3.92,58.1,3.86,87.41C415.21,247.32,416.05,247.83,416.91,248.31Z" style="opacity:0.2"></path><g style="opacity:0.2"><path d="M405.14,241.52c-1.22-5.63-3.15-12.06-9.43-22.92A60.94,60.94,0,0,0,375.46,197c-8.79-5.48-14.7-7.11-23.54-4.17-5.26,1.75-9,7.71-11,11.6l1.54.88c1.56-3.15,4.78-9.07,10.09-10.82,8.36-2.76,15.1-.22,22.51,4.71,12.52,8.33,22.5,23.11,27.93,41Z"></path></g><g style="opacity:0.5"><path d="M397,236.81a83.11,83.11,0,0,0-5.51-12.37C385,213.6,379,207.59,371.42,203c-6.87-4.18-11.79-6.14-18.38-3.61-2.78,1.07-5.73,5.32-6.57,8.32Z" style="fill:#BA68C8"></path></g><path d="M410.29,234.73c.67-20.63,1.23-41.17-1.49-61.71a24.55,24.55,0,0,1-5.58-3.31,17,17,0,0,1-5.69-8.29,23,23,0,0,1-.95-6.15c-19.33-12.9-38.5-19.66-57.34-28.34.55,2.33.82,3.68,1.11,5.6.2,1.3.51,2.8-.28,3.52-1,.89-2.27.3-3.63-.28a70.61,70.61,0,0,1-6.48-3.21c5.12,22.47,5.85,41.78,5.79,64.75,0,0,.51-.82,1.84-2.55a22.51,22.51,0,0,1,7.52-5.89c10.89-5.43,21.66-3,33,3.87,10.12,6.09,17.77,15.79,24.68,26.13a57.12,57.12,0,0,1,5.67,10.42A42.36,42.36,0,0,1,410.29,234.73Z" style="fill:#BA68C8"></path><g style="opacity:0.4"><path d="M378.15,177.45c2.33-1.27,3.16-3,2.88-5.7a20,20,0,0,0-3-8.6c-1.61-2.25-3.17-4.34-5.43-5.52s-4.61-2-6.71-.48-2.42,4.91-2,7.74c.69,4.53,2.26,7.58,6.55,11C372.53,177.56,376.28,178.46,378.15,177.45Z" style="fill:#fff"></path></g><polygon points="320.17 192.47 422.11 251.31 422.12 287.22 320.17 228.38 320.17 192.47" style="fill:#fafafa"></polygon><polygon points="422.12 287.22 448.79 271.82 448.79 235.91 422.11 251.31 422.12 287.22" style="fill:#ebebeb"></polygon><polygon points="448.79 235.91 446.97 234.86 446.97 236.96 448.79 235.91" style="fill:#e0e0e0"></polygon><polygon points="320.17 192.47 323.5 190.55 323.61 194.46 320.17 192.47" style="fill:#e0e0e0"></polygon><g style="opacity:0.30000000000000004"><polygon points="446.96 234.87 422.12 249.21 422.11 251.31 446.96 236.97 446.96 234.87"></polygon></g><g style="opacity:0.2"><polygon points="422.12 249.21 323.56 192.31 323.61 194.46 422.11 251.31 422.12 249.21"></polygon></g><polygon points="320.17 196.34 422.11 255.2 422.11 258.18 320.18 199.33 320.17 196.34" style="fill:#455a64"></polygon><polygon points="320.18 221.49 422.12 280.35 422.12 283.34 320.19 224.48 320.18 221.49" style="fill:#455a64"></polygon><polygon points="422.11 255.2 448.79 239.79 448.79 242.78 422.11 258.18 422.11 255.2" style="fill:#263238"></polygon><polygon points="422.12 280.35 448.79 264.95 448.79 267.95 422.12 283.34 422.12 280.35" style="fill:#263238"></polygon></g><g id="freepik--money--inject-8"><polygon points="41.48 362.95 238.49 249.22 336.99 306.09 139.98 419.82 41.48 362.95" style="fill:#BA68C8"></polygon><polygon points="41.48 362.95 238.49 249.22 336.99 306.09 139.98 419.82 41.48 362.95" style="fill:#fff;opacity:0.4"></polygon><path d="M238.49,255.2,51.84,363,140,413.84,326.62,306.09ZM140,410.84,57,363,238.49,258.2l82.94,47.89Z" style="fill:#BA68C8"></path><path d="M152.5,356.24c-8.82-5.09-13.67-12.05-13.67-19.59,0-8.23,5.93-16.38,16.26-22.34,20.26-11.7,52-12.37,70.87-1.5,8.82,5.09,13.68,12.05,13.68,19.59,0,8.23-5.93,16.38-16.27,22.34h0C212.76,360.87,199,364,185.55,364,173.36,364,161.46,361.41,152.5,356.24ZM156,315.83c-9.78,5.65-15.39,13.23-15.39,20.82,0,6.88,4.55,13.3,12.8,18.06,18.33,10.59,49.33,9.92,69.1-1.49h0c9.78-5.65,15.38-13.24,15.38-20.82,0-6.88-4.54-13.3-12.79-18.06-8.72-5-20.3-7.53-32.17-7.53C179.81,306.81,166.35,309.85,156,315.83Z" style="fill:#BA68C8"></path><g style="opacity:0.5"><path d="M155.69,350.71c-6.76-3.9-10.48-8.89-10.48-14.06,0-5.89,4.76-12,13.08-16.82,9.24-5.34,21.86-8.4,34.62-8.4,11.55,0,22.15,2.45,29.86,6.9,6.76,3.91,10.49,8.9,10.49,14.07,0,5.89-4.77,12-13.08,16.82-9.24,5.34-21.86,8.4-34.62,8.4C174,357.62,163.4,355.16,155.69,350.71Z" style="fill:#BA68C8"></path></g><path d="M144.73,397.06a10.56,10.56,0,0,0-9.5,0l-5.62,3.24-54-31,6.51-3.75a2.31,2.31,0,0,0,0-4.46l-6.51-3.76,59.31-34.43-1.16,2.53a23.25,23.25,0,0,0-2.19,9.71c0,9.65,9.67,19.55,19.25,25.08,8.55,4.94,23.52,9.92,37.68,9.92a91,91,0,0,0,11.68-.75l4.34-.55-54.16,31.45Z" style="fill:#BA68C8;opacity:0.5"></path><g style="opacity:0.4"><path d="M118.57,376.48c-2.25-1.3-3.49-3.11-3.49-5.1s1.49-4.23,4.08-5.73c4.85-2.8,12.47-2.95,17-.34,2.25,1.29,3.49,3.1,3.49,5.09,0,2.15-1.49,4.23-4.09,5.73a18.42,18.42,0,0,1-9,2.21A16.23,16.23,0,0,1,118.57,376.48Z" style="fill:#fff"></path></g><path d="M244.56,343.55a33.75,33.75,0,0,0,2.28-11.84c0-8-6.33-15.75-18.8-22.95-10-5.77-25.3-9.64-38.13-9.64a92.42,92.42,0,0,0-11.69.74l-4.39.57L228,269.27l5.62,3.25a10.68,10.68,0,0,0,9.48,0l5.62-3.25L302.62,300l-6.52,3.77a2.31,2.31,0,0,0,0,4.46l6.51,3.75-59.19,34.09Z" style="fill:#BA68C8;opacity:0.5"></path><g style="opacity:0.4"><path d="M242.54,305.19c-2.24-1.3-3.48-3.11-3.48-5.1,0-2.15,1.49-4.23,4.08-5.73,4.85-2.8,12.47-2.95,17-.35,2.25,1.3,3.48,3.11,3.48,5.1,0,2.15-1.48,4.23-4.08,5.73h0a18.48,18.48,0,0,1-9,2.21A16.3,16.3,0,0,1,242.54,305.19Z" style="fill:#fff"></path></g><polygon points="41.48 362.95 41.48 391.65 139.98 448.52 139.98 419.82 41.48 362.95" style="fill:#BA68C8"></polygon><polygon points="41.48 362.95 41.48 391.65 139.98 448.52 139.98 419.82 41.48 362.95" style="opacity:0.2"></polygon><g style="opacity:0.30000000000000004"><polygon points="139.98 428.01 108.88 410.71 139.98 429.46 139.98 428.01"></polygon><polygon points="41.48 377.18 51.85 383.77 41.48 378.39 41.48 377.18"></polygon><polygon points="41.48 382.88 93.32 413.69 41.48 384.65 41.48 382.88"></polygon><polygon points="139.98 433.71 88.14 404.72 139.98 435.59 139.98 433.71"></polygon></g><polygon points="139.98 448.52 336.99 334.79 336.99 306.09 139.98 419.82 139.98 448.52" style="fill:#BA68C8"></polygon><polygon points="139.98 448.52 336.99 334.79 336.99 306.09 139.98 419.82 139.98 448.52" style="fill:#fff;opacity:0.2"></polygon><polygon points="139.98 428.01 150.36 422.67 139.98 429.46 139.98 428.01" style="fill:#BA68C8"></polygon><polygon points="139.98 433.71 192.11 404.58 139.98 435.59 139.98 433.71" style="fill:#BA68C8"></polygon><polygon points="336.99 320.21 300.69 341.87 336.99 321.62 336.99 320.21" style="fill:#BA68C8"></polygon><polygon points="336.99 326.23 316.25 338.87 336.99 327.57 336.99 326.23" style="fill:#BA68C8"></polygon><polygon points="122.82 312.02 224.75 370.88 255.85 352.93 153.93 294.06 122.82 312.02" style="fill:#fafafa"></polygon><polygon points="255.85 352.93 255.85 383.73 224.75 401.69 224.75 370.88 255.85 352.93" style="fill:#ebebeb"></polygon><polygon points="224.75 401.69 222.93 400.63 224.75 399.58 224.75 401.69" style="fill:#e0e0e0"></polygon><polygon points="122.82 312.02 122.82 316 126.26 314.01 122.82 312.02" style="fill:#e0e0e0"></polygon><g style="opacity:0.30000000000000004"><polygon points="222.93 400.62 222.93 371.94 224.75 370.88 224.75 399.57 222.93 400.62"></polygon></g><g style="opacity:0.2"><polygon points="222.93 371.94 124.44 315.06 126.26 314.01 224.75 370.88 222.93 371.94"></polygon></g><polygon points="126.17 310.09 228.12 368.94 230.7 367.44 128.77 308.6 126.17 310.09" style="fill:#455a64"></polygon><polygon points="147.96 297.52 249.9 356.37 252.49 354.87 150.56 296.03 147.96 297.52" style="fill:#455a64"></polygon><polygon points="228.12 368.94 228.12 399.74 230.7 398.25 230.7 367.44 228.12 368.94" style="fill:#263238"></polygon><polygon points="249.9 356.37 249.9 387.17 252.5 385.67 252.49 354.87 249.9 356.37" style="fill:#263238"></polygon></g><g id="freepik--money--inject-8"><polygon id="freepik--shadow--inject-8" points="336.99 306.09 336.99 313.54 148.31 422.47 148.31 415.01 139.98 419.82 139.98 448.52 41.48 391.65 41.48 362.95 234.46 251.54 336.99 306.09" style="opacity:0.15"></polygon><polygon points="52.28 328.06 249.28 214.32 347.78 271.19 150.78 384.92 52.28 328.06" style="fill:#BA68C8"></polygon><polygon points="52.28 328.06 249.28 214.32 347.78 271.19 150.78 384.92 52.28 328.06" style="fill:#fff;opacity:0.4"></polygon><path d="M249.28,220.31,62.64,328.05l88.14,50.89L337.42,271.19ZM150.77,375.94,67.83,328.05,249.28,223.3l83,47.89Z" style="fill:#BA68C8"></path><path d="M163.3,321.34c-8.82-5.09-13.68-12-13.68-19.59,0-8.23,5.93-16.37,16.27-22.34,20.25-11.7,52.05-12.37,70.87-1.5,8.82,5.09,13.68,12,13.68,19.59,0,8.23-5.93,16.38-16.27,22.34h0c-10.62,6.13-24.4,9.23-37.82,9.23C184.16,329.07,172.26,326.51,163.3,321.34Zm3.47-40.41c-9.77,5.65-15.38,13.24-15.38,20.82,0,6.89,4.54,13.3,12.79,18.07,18.34,10.58,49.34,9.91,69.11-1.5h0c9.77-5.65,15.38-13.23,15.38-20.82,0-6.88-4.54-13.3-12.79-18.06-8.72-5-20.3-7.52-32.17-7.52C190.6,271.92,177.14,275,166.77,280.93Z" style="fill:#BA68C8"></path><g style="opacity:0.5"><path d="M166.49,315.81c-6.76-3.9-10.48-8.89-10.48-14.06,0-5.89,4.76-12,13.07-16.82,9.25-5.34,21.87-8.4,34.63-8.4,11.54,0,22.15,2.45,29.86,6.91,6.76,3.9,10.48,8.9,10.48,14.06,0,5.89-4.76,12-13.07,16.82-9.25,5.34-21.87,8.4-34.62,8.4C184.81,322.72,174.2,320.27,166.49,315.81Z" style="fill:#BA68C8"></path></g><path d="M155.53,362.17a10.53,10.53,0,0,0-9.5,0l-5.62,3.24-54-31,6.51-3.75a2.84,2.84,0,0,0,1.72-2.24c0-.79-.61-1.58-1.72-2.22l-6.5-3.76L145.71,288l-1.16,2.53a23.12,23.12,0,0,0-2.2,9.72c0,9.65,9.67,19.54,19.26,25.07,8.55,4.94,23.51,9.92,37.67,9.92a92.62,92.62,0,0,0,11.68-.74l4.34-.56-54.15,31.45Z" style="fill:#BA68C8;opacity:0.5"></path><g style="opacity:0.4"><path d="M129.37,341.58c-2.25-1.3-3.49-3.11-3.49-5.1,0-2.14,1.49-4.23,4.08-5.73,4.85-2.8,12.47-2.95,17-.34,2.25,1.3,3.48,3.11,3.48,5.09,0,2.15-1.48,4.24-4.08,5.73a18.45,18.45,0,0,1-9,2.21A16.23,16.23,0,0,1,129.37,341.58Z" style="fill:#fff"></path></g><path d="M255.36,308.65a34,34,0,0,0,2.27-11.84c0-8-6.32-15.75-18.79-22.95-10-5.76-25.3-9.64-38.13-9.64A90.75,90.75,0,0,0,189,265l-4.38.56,54.14-31.16,5.62,3.25a10.68,10.68,0,0,0,9.48,0l5.62-3.26,53.92,30.71-6.51,3.78a2.79,2.79,0,0,0-1.7,2.22,2.83,2.83,0,0,0,1.7,2.23l6.51,3.75-59.19,34.09Z" style="fill:#BA68C8;opacity:0.5"></path><g style="opacity:0.4"><path d="M253.34,270.29c-2.25-1.3-3.48-3.11-3.48-5.1s1.48-4.23,4.08-5.73c4.85-2.8,12.47-2.95,17-.34,2.25,1.29,3.49,3.1,3.49,5.09,0,2.15-1.49,4.24-4.08,5.73h0a18.49,18.49,0,0,1-9.05,2.21A16.29,16.29,0,0,1,253.34,270.29Z" style="fill:#fff"></path></g><polygon points="52.28 328.06 52.28 356.75 150.78 413.62 150.78 384.92 52.28 328.06" style="fill:#BA68C8"></polygon><polygon points="52.28 328.06 52.28 356.75 150.78 413.62 150.78 384.92 52.28 328.06" style="opacity:0.2"></polygon><g style="opacity:0.30000000000000004"><polygon points="150.78 393.11 119.67 375.81 150.78 394.57 150.78 393.11"></polygon><polygon points="52.28 342.28 62.65 348.87 52.28 343.49 52.28 342.28"></polygon><polygon points="52.28 347.99 104.11 378.8 52.28 349.75 52.28 347.99"></polygon><polygon points="150.78 398.81 98.94 369.82 150.78 400.69 150.78 398.81"></polygon></g><polygon points="150.78 413.62 347.78 299.89 347.78 271.19 150.78 384.92 150.78 413.62" style="fill:#BA68C8"></polygon><polygon points="150.78 413.62 347.78 299.89 347.78 271.19 150.78 384.92 150.78 413.62" style="fill:#fff;opacity:0.2"></polygon><polygon points="150.78 393.11 161.16 387.77 150.78 394.57 150.78 393.11" style="fill:#BA68C8"></polygon><polygon points="150.78 398.81 202.91 369.68 150.78 400.69 150.78 398.81" style="fill:#BA68C8"></polygon><polygon points="347.78 285.31 311.49 306.97 347.78 286.72 347.78 285.31" style="fill:#BA68C8"></polygon><polygon points="347.79 291.33 327.05 303.97 347.78 292.67 347.79 291.33" style="fill:#BA68C8"></polygon><polygon points="133.62 277.12 235.55 335.98 266.65 318.03 164.72 259.16 133.62 277.12" style="fill:#fafafa"></polygon><polygon points="266.65 318.03 266.65 348.84 235.55 366.79 235.55 335.98 266.65 318.03" style="fill:#ebebeb"></polygon><polygon points="235.55 366.79 233.73 365.74 235.55 364.68 235.55 366.79" style="fill:#e0e0e0"></polygon><polygon points="133.62 277.12 133.62 281.1 137.06 279.11 133.62 277.12" style="fill:#e0e0e0"></polygon><g style="opacity:0.30000000000000004"><polygon points="233.73 365.72 233.73 337.04 235.55 335.98 235.55 364.67 233.73 365.72"></polygon></g><g style="opacity:0.2"><polygon points="233.73 337.04 135.24 280.16 137.06 279.11 235.55 335.98 233.73 337.04"></polygon></g><polygon points="136.97 275.19 238.91 334.04 241.5 332.55 139.56 273.7 136.97 275.19" style="fill:#455a64"></polygon><polygon points="158.75 262.62 260.7 321.47 263.29 319.98 161.35 261.13 158.75 262.62" style="fill:#455a64"></polygon><polygon points="238.91 334.04 238.91 364.85 241.5 363.35 241.5 332.55 238.91 334.04" style="fill:#263238"></polygon><polygon points="260.7 321.47 260.7 352.27 263.3 350.77 263.29 319.98 260.7 321.47" style="fill:#263238"></polygon></g><g id="freepik--money--inject-8"><polygon id="freepik--shadow--inject-8" points="333.08 267.35 140.24 378.69 140.24 407.54 52.28 356.75 52.28 328.06 245.26 216.64 333.08 267.35" style="opacity:0.15"></polygon><polygon points="31.09 295.55 31.09 324.25 129.59 381.12 129.59 352.42 31.09 295.55" style="fill:#BA68C8"></polygon><polygon points="31.09 295.55 31.09 324.25 129.59 381.12 129.59 352.42 31.09 295.55" style="opacity:0.2"></polygon><g style="opacity:0.30000000000000004"><polygon points="129.59 360.61 98.48 343.31 129.59 362.06 129.59 360.61"></polygon><polygon points="31.09 309.78 41.46 316.37 31.09 310.99 31.09 309.78"></polygon><polygon points="31.09 315.49 82.92 346.29 31.09 317.25 31.09 315.49"></polygon><polygon points="129.59 366.31 77.75 337.32 129.59 368.19 129.59 366.31"></polygon></g><polygon points="129.59 381.12 326.59 267.39 326.59 238.69 129.59 352.42 129.59 381.12" style="fill:#BA68C8"></polygon><polygon points="129.59 381.12 326.59 267.39 326.59 238.69 129.59 352.42 129.59 381.12" style="fill:#fff;opacity:0.2"></polygon><g style="opacity:0.8"><polygon points="129.59 360.61 139.97 355.27 129.59 362.06 129.59 360.61" style="fill:#BA68C8"></polygon><polygon points="129.59 366.31 181.72 337.18 129.59 368.19 129.59 366.31" style="fill:#BA68C8"></polygon><polygon points="326.59 252.81 290.3 274.46 326.59 254.22 326.59 252.81" style="fill:#BA68C8"></polygon><polygon points="326.59 258.83 305.85 271.47 326.59 260.17 326.59 258.83" style="fill:#BA68C8"></polygon></g><polygon points="31.09 295.55 228.09 181.82 326.59 238.69 129.59 352.42 31.09 295.55" style="fill:#BA68C8"></polygon><polygon points="31.09 295.55 228.09 181.82 326.59 238.69 129.59 352.42 31.09 295.55" style="fill:#fff;opacity:0.4"></polygon><path d="M228.09,187.8,41.45,295.55l88.13,50.89L316.23,238.69ZM129.58,343.44,46.64,295.55,228.09,190.8l83,47.89Z" style="fill:#BA68C8"></path><path d="M142.11,288.84c-8.82-5.09-13.68-12-13.68-19.59,0-8.23,5.93-16.38,16.27-22.34,20.25-11.7,52.05-12.37,70.87-1.5,8.82,5.09,13.68,12,13.68,19.59,0,8.23-5.93,16.38-16.27,22.34h0c-10.62,6.13-24.4,9.23-37.82,9.23C163,296.57,151.07,294,142.11,288.84Zm3.47-40.41c-9.77,5.65-15.38,13.23-15.38,20.82,0,6.88,4.54,13.3,12.79,18.06,18.34,10.59,49.34,9.92,69.11-1.49h0c9.77-5.65,15.38-13.23,15.38-20.82,0-6.88-4.54-13.3-12.79-18.06-8.72-5-20.3-7.53-32.17-7.53C169.41,239.41,156,242.45,145.58,248.43Z" style="fill:#BA68C8"></path><g style="opacity:0.5"><path d="M145.3,283.31c-6.76-3.9-10.49-8.89-10.49-14.06,0-5.89,4.77-12,13.08-16.82,9.25-5.34,21.87-8.4,34.63-8.4,11.54,0,22.15,2.45,29.86,6.9,6.76,3.91,10.48,8.9,10.48,14.07,0,5.89-4.76,12-13.07,16.82-9.25,5.34-21.87,8.4-34.62,8.4C163.61,290.22,153,287.76,145.3,283.31Z" style="fill:#BA68C8"></path></g><path d="M134.34,329.66a10.56,10.56,0,0,0-9.5,0l-5.62,3.24-54-31,6.51-3.75a2.31,2.31,0,0,0,0-4.46L65.21,290l59.3-34.43-1.16,2.53a23.25,23.25,0,0,0-2.19,9.71c0,9.65,9.67,19.55,19.26,25.08,8.55,4.94,23.51,9.92,37.67,9.92a90.79,90.79,0,0,0,11.68-.75l4.34-.55L140,332.92Z" style="fill:#BA68C8;opacity:0.5"></path><g style="opacity:0.4"><path d="M108.18,309.08c-2.25-1.3-3.49-3.11-3.49-5.1,0-2.14,1.49-4.23,4.08-5.73,4.85-2.8,12.47-2.95,17-.34,2.25,1.29,3.48,3.1,3.48,5.09,0,2.15-1.48,4.23-4.08,5.73a18.45,18.45,0,0,1-9,2.21A16.23,16.23,0,0,1,108.18,309.08Z" style="fill:#fff"></path></g><path d="M234.17,276.15a34,34,0,0,0,2.27-11.84c0-8-6.32-15.75-18.79-22.95-10-5.77-25.3-9.64-38.14-9.64a92.54,92.54,0,0,0-11.69.74l-4.38.57,54.14-31.16,5.62,3.25a10.68,10.68,0,0,0,9.48,0l5.62-3.25,53.92,30.71-6.51,3.77a2.31,2.31,0,0,0,0,4.46l6.51,3.75L233,278.65Z" style="fill:#BA68C8;opacity:0.5"></path><g style="opacity:0.4"><path d="M232.15,237.79c-2.25-1.3-3.49-3.11-3.49-5.1,0-2.15,1.49-4.23,4.09-5.73,4.84-2.8,12.46-3,17-.35,2.25,1.3,3.49,3.11,3.49,5.1,0,2.15-1.49,4.23-4.08,5.73h0a18.49,18.49,0,0,1-9,2.21A16.29,16.29,0,0,1,232.15,237.79Z" style="fill:#fff"></path></g><path d="M115.87,246.61l-78,49.53c27.46,17.58,58.41,35.7,92.34,54.27l84.16-46.93Z" style="opacity:0.15"></path><path d="M115.9,246.6c-27,14.75-55.75,25-85.33,33.62a553,553,0,0,0,99,67c21.4-8.52,57.7-28.5,73.29-37.22,11.06-6.31,11.49-6.53,11.49-6.53Z" style="fill:#BA68C8"></path><path d="M115.9,246.6c-27,14.75-55.75,25-85.33,33.62a553,553,0,0,0,99,67c21.4-8.52,57.7-28.5,73.29-37.22,11.06-6.31,11.49-6.53,11.49-6.53Z" style="fill:#fff;opacity:0.4"></path><path d="M206.65,298.93c-25.36,14.7-50.54,29.23-77.69,40.42C99.69,323.8,71.17,304,45.81,284.3a369.27,369.27,0,0,0,77.81-33.13l-2.55-1.56C95.77,264.17,69.28,275.83,40.93,283c25.78,21.78,57,42.38,87.9,58.92,28-11.57,54.18-26.33,80.39-41.49Z" style="fill:#BA68C8"></path><path d="M195.23,292.43c-18.25,4.26-36,3-49.51-3.67-8-3.95-13.55-8.52-15.34-17.14-1.14-5.48,2.38-11.22,4.33-14.15l-1.53-.89c-2.37,3.68-5.66,9.91-4.54,15.34,1.88,9.13,6.24,13.42,15.38,18.3A60.9,60.9,0,0,0,172.83,297c12.54,0,19.07-1.54,24.56-3.3Z" style="fill:#BA68C8"></path><g style="opacity:0.5"><path d="M138.74,259.8c-2.17,2.22-4.38,6.9-3.91,9.85,1.09,7,5.26,10.25,12.31,14.11,7.82,4.27,16,6.46,28.63,6.63A83.64,83.64,0,0,0,189.23,289Z" style="fill:#BA68C8"></path></g><path d="M188.46,302.66a57,57,0,0,1-11.86.3,80.29,80.29,0,0,1-34.09-9.84c-11.57-6.41-20-13-20.73-25.11a22.63,22.63,0,0,1,1.34-9.45c.83-2,1.29-2.87,1.29-2.87-19.86,11.54-36.95,20.56-59,27.37a68.35,68.35,0,0,1,6,4c1.18.88,2.34,1.7,2.06,3-.23,1-1.69,1.53-2.91,2-1.81.7-3.11,1.14-5.41,1.83,17,12,32.38,25.2,53.22,35.49a23.34,23.34,0,0,1,5.8-2.25,17,17,0,0,1,10,.78,24.67,24.67,0,0,1,5.67,3.18c19.14-7.92,36.65-18.67,54.18-29.56A42.11,42.11,0,0,1,188.46,302.66Z" style="fill:#BA68C8;opacity:0.5"></path><g style="opacity:0.4"><path d="M125.28,298a26,26,0,0,0-16.2-.59c-2.76.76-4.1,1.81-4.41,4.42s1.29,3.61,3.44,5a18.7,18.7,0,0,0,7.83,2.53,18.36,18.36,0,0,0,8.66-1.12c2.48-1.11,4.13-2.54,4.22-5.19S127.8,299,125.28,298Z" style="fill:#fff"></path></g><polygon points="112.43 244.62 214.36 303.48 245.46 285.53 143.53 226.66 112.43 244.62" style="fill:#fafafa"></polygon><polygon points="245.46 285.53 245.46 316.33 214.36 334.29 214.36 303.48 245.46 285.53" style="fill:#ebebeb"></polygon><polygon points="214.36 334.29 212.54 333.23 214.36 332.18 214.36 334.29" style="fill:#e0e0e0"></polygon><polygon points="112.43 244.62 112.43 248.46 115.87 246.61 112.43 244.62" style="fill:#e0e0e0"></polygon><g style="opacity:0.30000000000000004"><polygon points="212.54 333.22 212.54 304.54 214.36 303.48 214.36 332.17 212.54 333.22"></polygon></g><g style="opacity:0.2"><polygon points="212.54 304.54 113.98 247.62 115.87 246.61 214.36 303.48 212.54 304.54"></polygon></g><polygon points="115.78 242.69 217.72 301.54 220.31 300.04 118.37 241.2 115.78 242.69" style="fill:#455a64"></polygon><polygon points="137.56 230.12 239.51 288.97 242.09 287.47 140.16 228.63 137.56 230.12" style="fill:#455a64"></polygon><polygon points="217.72 301.54 217.72 332.35 220.31 330.85 220.31 300.04 217.72 301.54" style="fill:#263238"></polygon><polygon points="239.51 288.97 239.51 319.77 242.1 318.27 242.09 287.47 239.51 288.97" style="fill:#263238"></polygon></g></g></svg>