<svg xmlns="http://www.w3.org/2000/svg" viewBox="0 0 500 500"><g id="freepik--background-complete--inject-119"><rect x="46.11" y="334.62" width="26.48" height="11.19" style="fill:#ebebeb"></rect><rect x="31.34" y="348.73" width="26.48" height="11.19" style="fill:#ebebeb"></rect><rect x="258.21" y="150.47" width="26.48" height="11.19" style="fill:#ebebeb"></rect><rect x="243.44" y="164.58" width="26.48" height="11.19" style="fill:#ebebeb"></rect><rect x="228.73" y="150.47" width="26.48" height="11.19" style="fill:#ebebeb"></rect><rect x="442.18" y="348.73" width="26.48" height="11.19" style="fill:#ebebeb"></rect><rect x="427.41" y="33.33" width="26.48" height="11.19" style="fill:#ebebeb"></rect><rect x="442.18" y="47.44" width="26.48" height="11.19" style="fill:#ebebeb"></rect><rect x="46.11" y="33.33" width="26.48" height="11.19" style="fill:#ebebeb"></rect><path d="M446.27,158.52a29,29,0,0,1-43.19-18.29,29,29,0,1,1,43.19,18.29Z" style="fill:#ebebeb"></path><path d="M440.18,130.47a8.83,8.83,0,1,1-8.72-8.93A8.84,8.84,0,0,1,440.18,130.47Z" style="fill:#fff"></path><path d="M446.31,154.88l0,3.64a29,29,0,0,1-30.49-.38l0-3.62a15.25,15.25,0,0,1,30.49.36Z" style="fill:#fff"></path><path d="M72.46,307.2a21.62,21.62,0,1,1,9.93-23.41A21.56,21.56,0,0,1,72.46,307.2Z" style="fill:#ebebeb"></path><path d="M67.92,286.27a6.58,6.58,0,1,1-6.5-6.66A6.59,6.59,0,0,1,67.92,286.27Z" style="fill:#fff"></path><path d="M72.49,304.48l0,2.72a21.6,21.6,0,0,1-22.74-.28l0-2.71a11.37,11.37,0,0,1,22.74.27Z" style="fill:#fff"></path><path d="M420.49,78.11V390.89c0,8.84-6.62,16-14.79,16h-146c-8.18,0-14.8-7.15-14.8-16V78.11c0-18,6.62-18.88,14.8-18.88H289c1.69,0,3.08,1.93,3.08,4.32v1c0,5.61,3.07,5.63,6.84,5.63h67.62c3.8,0,6.85,0,6.85-5.63v-1c0-2.39,1.37-4.32,3.1-4.32H405.7C413.87,59.23,420.49,61.62,420.49,78.11Z" style="fill:#ebebeb"></path><path d="M341.93,62.93H323.48a1.14,1.14,0,0,1-1.14-1.14h0a1.14,1.14,0,0,1,1.14-1.14h18.45a1.14,1.14,0,0,1,1.14,1.14h0A1.14,1.14,0,0,1,341.93,62.93Z" style="fill:#fff"></path><g id="freepik--u5Zjqx--inject-119"><path d="M284.36,66l-.28.28a1.21,1.21,0,0,0-.16.16,3.85,3.85,0,0,0-5.45,0l-.15-.16L278,66h0l0,0,.36-.31a4,4,0,0,1,.82-.53,4.32,4.32,0,0,1,1.1-.37l.55-.07h.48l.37,0a4.29,4.29,0,0,1,1,.24,3.51,3.51,0,0,1,.68.32,4.18,4.18,0,0,1,.65.45l.3.27Z" style="fill:#fff"></path><path d="M279.37,67.3l-.45-.44a3.22,3.22,0,0,1,4.55,0l-.45.44a2.6,2.6,0,0,0-3.65,0Z" style="fill:#fff"></path><path d="M282.57,67.75c-.14.15-.29.29-.44.44a1.31,1.31,0,0,0-.94-.38,1.27,1.27,0,0,0-.93.39l-.45-.45A1.94,1.94,0,0,1,282.57,67.75Z" style="fill:#fff"></path><path d="M281.6,68.6a.41.41,0,1,1-.41-.4A.4.4,0,0,1,281.6,68.6Z" style="fill:#fff"></path></g><path d="M256.81,66.83A1.17,1.17,0,1,1,258,68,1.16,1.16,0,0,1,256.81,66.83Z" style="fill:#fff"></path><path d="M260.47,66.83A1.17,1.17,0,1,1,261.64,68,1.17,1.17,0,0,1,260.47,66.83Z" style="fill:#fff"></path><path d="M264.14,66.83A1.17,1.17,0,1,1,265.3,68,1.16,1.16,0,0,1,264.14,66.83Z" style="fill:#fff"></path><path d="M267.8,66.83A1.17,1.17,0,1,1,269,68,1.17,1.17,0,0,1,267.8,66.83Z" style="fill:#fff"></path><path d="M271.47,66.83A1.17,1.17,0,1,1,272.63,68,1.16,1.16,0,0,1,271.47,66.83Z" style="fill:#fff"></path><path d="M407.76,69.37h-9.48V65h9.48Zm-9-.48h8.5V65.46h-8.5Z" style="fill:#fff"></path><rect x="399.07" y="65.73" width="6.11" height="2.9" style="fill:#fff"></rect><rect x="407.76" y="66" width="0.84" height="2.35" style="fill:#fff"></rect><circle cx="332.7" cy="365.27" r="14.87" style="fill:#fff"></circle><path d="M332.7,385.15a19.89,19.89,0,1,1,19.89-19.88A19.9,19.9,0,0,1,332.7,385.15Zm0-37.77a17.89,17.89,0,1,0,17.89,17.89A17.91,17.91,0,0,0,332.7,347.38Z" style="fill:#fff"></path><rect x="256.69" y="104.05" width="152.03" height="205.57" style="fill:#fff"></rect><rect x="306.87" y="104.05" width="1" height="205.57" style="fill:#ebebeb"></rect><rect x="357.55" y="104.05" width="1" height="205.57" style="fill:#ebebeb"></rect><rect x="256.69" y="166.95" width="152.03" height="1" style="fill:#ebebeb"></rect><rect x="256.69" y="240.6" width="152.03" height="1" style="fill:#ebebeb"></rect><circle cx="270.32" cy="365.27" r="8.31" transform="translate(-147.44 544.08) rotate(-76.67)" style="fill:#fff"></circle><rect x="366.06" y="358.5" width="14.7" height="2.18" style="fill:#fff"></rect><rect x="366.06" y="364.18" width="14.7" height="2.18" style="fill:#fff"></rect><rect x="366.06" y="369.85" width="14.7" height="2.18" style="fill:#fff"></rect><rect x="369.03" y="357.4" width="1" height="4.38" style="fill:#fff"></rect><rect x="376.84" y="363.08" width="1" height="4.38" style="fill:#fff"></rect><rect x="372.91" y="368.75" width="1" height="4.38" style="fill:#fff"></rect><path d="M403.91,365.27h-1a7.37,7.37,0,0,0-7.36-7.37,7.29,7.29,0,0,0-5.9,3l-.81-.6a8.37,8.37,0,0,1,15.07,5Z" style="fill:#fff"></path><polygon points="391.77 359.84 389.42 360.32 388.93 357.98 388.14 359.18 388.63 361.53 390.98 361.04 391.77 359.84" style="fill:#fff"></polygon><path d="M395.55,373.63a8.38,8.38,0,0,1-8.37-8.36h1a7.37,7.37,0,0,0,13.43,4.19l.82.57A8.4,8.4,0,0,1,395.55,373.63Z" style="fill:#fff"></path><polygon points="399.53 370.56 401.86 369.99 402.43 372.31 403.17 371.08 402.6 368.76 400.27 369.33 399.53 370.56" style="fill:#fff"></polygon></g><g id="freepik--Device--inject-119"><path d="M331.58,58.78H168.4a16.66,16.66,0,0,0-16.5,16.81V411.48a16.66,16.66,0,0,0,16.5,16.81H331.58a16.68,16.68,0,0,0,16.52-16.81V75.59A16.67,16.67,0,0,0,331.58,58.78Zm6.19,342.32c0,8.84-6.62,16-14.78,16H177c-8.18,0-14.8-7.15-14.8-16V88.32c0-18,6.62-18.89,14.8-18.89h29.25c1.7,0,3.09,1.93,3.09,4.33v1c0,5.61,3.07,5.63,6.83,5.63H283.8c3.8,0,6.85,0,6.85-5.63v-1c0-2.4,1.37-4.33,3.1-4.33H323c8.16,0,14.78,2.4,14.78,18.89Z" style="fill:#263238"></path><path d="M337.78,88.6V401.37c0,8.84-6.62,16-14.78,16H177c-8.18,0-14.8-7.15-14.8-16V88.6c0-18,6.62-18.89,14.8-18.89h29.25c1.7,0,3.09,1.93,3.09,4.32v1c0,5.6,3.07,5.62,6.83,5.62h67.62c3.8,0,6.85,0,6.85-5.62V74c0-2.39,1.37-4.32,3.1-4.32H323C331.16,69.71,337.78,72.1,337.78,88.6Z" style="fill:#fff"></path><path d="M259.22,73.41H240.77a1.14,1.14,0,0,1-1.14-1.14h0a1.14,1.14,0,0,1,1.14-1.14h18.45a1.14,1.14,0,0,1,1.14,1.14h0A1.14,1.14,0,0,1,259.22,73.41Z" style="fill:#fff"></path><g id="freepik--u5zjqx--inject-119"><path d="M201.21,76.46l-.28.28-.16.16a3.85,3.85,0,0,0-5.45,0l-.15-.16a3.7,3.7,0,0,1-.28-.28h0l0,0,.36-.31a4.42,4.42,0,0,1,.82-.53,4.32,4.32,0,0,1,1.1-.37l.55-.07h.47l.38,0a4.29,4.29,0,0,1,1,.24,4.66,4.66,0,0,1,1.33.77l.3.27Z" style="fill:#a6a6a6"></path><path d="M196.22,77.79l-.45-.45a3.23,3.23,0,0,1,1.82-.91,3.19,3.19,0,0,1,2.73.91l-.45.44A2.55,2.55,0,0,0,198,77,2.49,2.49,0,0,0,196.22,77.79Z" style="fill:#a6a6a6"></path><path d="M199.42,78.23l-.44.45a1.32,1.32,0,0,0-1.87,0l-.45-.44A2,2,0,0,1,199.42,78.23Z" style="fill:#a6a6a6"></path><path d="M198.44,79.08a.4.4,0,1,1-.4-.4A.4.4,0,0,1,198.44,79.08Z" style="fill:#a6a6a6"></path></g><path d="M173.66,77.31a1.17,1.17,0,1,1,1.16,1.17A1.16,1.16,0,0,1,173.66,77.31Z" style="fill:#a6a6a6"></path><path d="M177.32,77.31a1.17,1.17,0,1,1,1.17,1.17A1.17,1.17,0,0,1,177.32,77.31Z" style="fill:#a6a6a6"></path><path d="M181,77.31a1.17,1.17,0,1,1,1.16,1.17A1.16,1.16,0,0,1,181,77.31Z" style="fill:#a6a6a6"></path><path d="M184.65,77.31a1.17,1.17,0,1,1,1.17,1.17A1.16,1.16,0,0,1,184.65,77.31Z" style="fill:#a6a6a6"></path><path d="M188.32,77.31a1.17,1.17,0,0,1,2.33,0,1.17,1.17,0,1,1-2.33,0Z" style="fill:#a6a6a6"></path><path d="M324.61,79.85h-9.48V75.46h9.48Zm-9-.48h8.5V76h-8.5Z" style="fill:#a6a6a6"></path><rect x="315.92" y="76.21" width="6.11" height="2.9" style="fill:#a6a6a6"></rect><rect x="324.61" y="76.48" width="0.84" height="2.35" style="fill:#a6a6a6"></rect><rect x="174.32" y="269.91" width="42.36" height="42.36" style="fill:#BA68C8"></rect><path d="M210.74,282.67c0-4.15-2.61-6.83-6.72-6.87q-8.53-.09-17.07,0a6.4,6.4,0,0,0-6.69,6.72c0,2.84,0,5.68,0,8.52s0,5.56,0,8.34c0,4.24,2.62,6.95,6.82,7,5.62.06,11.26.07,16.88,0,4.12,0,6.76-2.75,6.78-6.85C210.77,293.91,210.76,288.28,210.74,282.67ZM208,299.57c0,2.62-1.44,4.08-4.07,4.09q-8.44.06-16.88,0c-2.64,0-4.06-1.46-4.08-4.07q0-8.52,0-17c0-2.6,1.47-4.1,4.06-4.11q8.44-.06,16.89,0c2.6,0,4.05,1.5,4.08,4.09,0,2.84,0,5.68,0,8.52S208.05,296.73,208,299.57Z" style="fill:#fff"></path><path d="M195.52,283.09a8,8,0,1,0,7.91,8.08A8,8,0,0,0,195.52,283.09Zm-.1,13.27a5.37,5.37,0,0,1-5.22-5.25,5.31,5.31,0,0,1,10.61,0A5.38,5.38,0,0,1,195.42,296.36Z" style="fill:#fff"></path><path d="M205.85,282.9a1.65,1.65,0,0,1-1.9,1.65,1.67,1.67,0,0,1-1.73-2,1.76,1.76,0,0,1,1.92-1.69A1.78,1.78,0,0,1,205.85,282.9Z" style="fill:#fff"></path><rect x="174.32" y="160.91" width="42.36" height="42.36" style="fill:#263238"></rect><path d="M208.61,184.65a2.08,2.08,0,0,1-1-1.92c0-.21,0-.43,0-.64s0-.43,0-.64a2.06,2.06,0,0,1,1-1.91l2.31-1.34-4.34-7.51-2.3,1.33a2.07,2.07,0,0,1-2.17-.08,11.27,11.27,0,0,0-1.12-.65,2.06,2.06,0,0,1-1.14-1.83V166.8h-8.68v2.66a2.06,2.06,0,0,1-1.14,1.83,11.27,11.27,0,0,0-1.12.65,2.07,2.07,0,0,1-2.17.08l-2.3-1.33-4.34,7.51,2.32,1.34a2.06,2.06,0,0,1,1,1.91c0,.21,0,.43,0,.64s0,.43,0,.64a2.05,2.05,0,0,1-1,1.91L180.09,186l4.34,7.51,2.3-1.33a2.05,2.05,0,0,1,2.16.08c.36.23.74.45,1.13.65a2.06,2.06,0,0,1,1.14,1.83v2.66h8.68v-2.66a2.06,2.06,0,0,1,1.14-1.83c.39-.2.77-.42,1.13-.65a2.05,2.05,0,0,1,2.16-.08l2.3,1.33,4.34-7.51ZM195.5,189.2a7.11,7.11,0,1,1,7.11-7.11A7.11,7.11,0,0,1,195.5,189.2Z" style="fill:#fff"></path><path d="M200.44,182.09a4.94,4.94,0,1,1-4.94-4.94A4.94,4.94,0,0,1,200.44,182.09Z" style="fill:#fff"></path><rect x="174.32" y="106.4" width="42.36" height="42.36" style="fill:#BA68C8"></rect><path d="M202.52,120.59a7,7,0,1,1-7-7A7,7,0,0,1,202.52,120.59Z" style="fill:#fff"></path><path d="M193.7,128.19h3.61a9.64,9.64,0,0,1,9.64,9.64v3.77a0,0,0,0,1,0,0H184.06a0,0,0,0,1,0,0v-3.77A9.64,9.64,0,0,1,193.7,128.19Z" style="fill:#fff"></path><rect x="174.32" y="215.42" width="42.36" height="42.36" style="fill:#455a64"></rect><rect x="182.31" y="229.52" width="26.37" height="18.08" style="fill:#fff"></rect><polygon points="191.66 225.6 183.84 225.6 182.31 228.91 193.18 228.91 191.66 225.6" style="fill:#fff"></polygon><rect x="283.33" y="215.42" width="42.34" height="42.34" style="fill:#BA68C8"></rect><circle cx="304.5" cy="236.59" r="15.54" style="fill:#455a64"></circle><circle cx="305.21" cy="236.93" r="14.83" transform="translate(-57.2 370.91) rotate(-58.11)" style="fill:#263238"></circle><circle cx="305.21" cy="236.93" r="13.89" style="fill:#fff"></circle><rect x="305.08" y="224.05" width="0.27" height="2.11" style="fill:#c7c7c7"></rect><rect x="299.16" y="225.63" width="0.27" height="2.11" transform="translate(-73.25 180.02) rotate(-30)" style="fill:#c7c7c7"></rect><rect x="294.83" y="229.96" width="0.27" height="2.11" transform="matrix(0.5, -0.87, 0.87, 0.5, -52.59, 370.93)" style="fill:#c7c7c7"></rect><rect x="292.33" y="236.8" width="2.11" height="0.27" style="fill:#c7c7c7"></rect><rect x="293.91" y="242.72" width="2.11" height="0.27" transform="translate(-81.9 179.98) rotate(-29.99)" style="fill:#c7c7c7"></rect><rect x="298.24" y="247.05" width="2.11" height="0.27" transform="translate(-64.26 383.22) rotate(-60.07)" style="fill:#c7c7c7"></rect><rect x="305.08" y="247.71" width="0.27" height="2.11" style="fill:#c7c7c7"></rect><rect x="310.99" y="246.13" width="0.27" height="2.11" transform="translate(-81.91 188.69) rotate(-30)" style="fill:#c7c7c7"></rect><rect x="315.33" y="241.8" width="0.27" height="2.11" transform="translate(-52.6 394.59) rotate(-59.99)" style="fill:#c7c7c7"></rect><rect x="315.99" y="236.8" width="2.11" height="0.27" style="fill:#c7c7c7"></rect><rect x="314.41" y="230.88" width="2.11" height="0.27" transform="translate(-73.24 188.64) rotate(-29.99)" style="fill:#c7c7c7"></rect><rect x="310.08" y="226.55" width="2.11" height="0.27" transform="translate(-40.67 382.97) rotate(-60.03)" style="fill:#c7c7c7"></rect><polygon points="305.41 225 305.87 237.87 304.55 237.85 305.06 225 305.41 225" style="fill:#BA68C8"></polygon><polygon points="313.43 232.44 304.77 237.97 304.14 236.81 313.26 232.13 313.43 232.44" style="fill:#a6a6a6"></polygon><path d="M305.66,236.93a.45.45,0,1,1-.45-.45A.45.45,0,0,1,305.66,236.93Z" style="fill:#c7c7c7"></path><rect x="228.81" y="160.91" width="42.36" height="42.36" style="fill:#BA68C8"></rect><path d="M265.37,195.42H234.61V168.76h30.76Zm-28.76-2h26.76V170.76H236.61Z" style="fill:#fff"></path><polygon points="235.61 194.42 243.96 186.43 251.52 194.42 235.61 194.42" style="fill:#fff"></polygon><polygon points="246.33 194.42 256.24 181.9 264.37 194.42 246.33 194.42" style="fill:#fff"></polygon><path d="M246.52,181.16a3,3,0,1,1-3-3A2.95,2.95,0,0,1,246.52,181.16Z" style="fill:#fff"></path><rect x="174.32" y="323.82" width="42.36" height="42.36" style="fill:#455a64"></rect><path d="M182.16,353.67a12.11,12.11,0,0,0,7.78-2.4c-3.22-1-4.5-2-5-3.79l2.16-.11a5.93,5.93,0,0,1-4.23-5.47l2.23.59c-2.34-2.93-2.81-5.21-1.42-7.33a16.1,16.1,0,0,0,11.42,5.71c0-.36,0-.64,0-.91a5.25,5.25,0,0,1,3.06-5.28,5.31,5.31,0,0,1,6.06.73,1.11,1.11,0,0,0,1.23.25l2.69-1a5.49,5.49,0,0,1-2.12,2.72l.06.16,2.67-.69.11.11c-.69.69-1.35,1.42-2.08,2.07a1.43,1.43,0,0,0-.58,1.19A15.61,15.61,0,0,1,192,355.88a15.79,15.79,0,0,1-9.27-1.89Z" style="fill:#fff"></path><rect x="283.32" y="323.82" width="42.36" height="42.36" style="fill:#455a64"></rect><path d="M316.05,334.63H293a3.58,3.58,0,0,0-3.58,3.58v13.58a3.57,3.57,0,0,0,3.58,3.57h23.1a3.57,3.57,0,0,0,3.58-3.57V338.21A3.58,3.58,0,0,0,316.05,334.63Zm-16.51,14.86v-9l11.33,4.5Z" style="fill:#fff"></path><rect x="228.82" y="323.82" width="42.36" height="42.36" style="fill:#BA68C8"></rect><ellipse cx="250" cy="344.11" rx="13.86" ry="12.01" style="fill:#fff"></ellipse><polygon points="239.96 350.91 237.47 357.89 246.28 355.15 239.96 350.91" style="fill:#fff"></polygon><rect x="283.32" y="160.91" width="42.36" height="42.36" style="fill:#455a64"></rect><path d="M299.7,196a4.53,4.53,0,1,1-4.52-4.53A4.53,4.53,0,0,1,299.7,196Z" style="fill:#fff"></path><rect x="296.24" y="173.22" width="3.46" height="22.75" style="fill:#fff"></rect><path d="M314.35,189.43a4.53,4.53,0,1,1-4.53-4.52A4.53,4.53,0,0,1,314.35,189.43Z" style="fill:#fff"></path><rect x="310.89" y="166.63" width="3.46" height="22.75" style="fill:#fff"></rect><polygon points="314.35 166.68 296.24 176.26 296.24 173.22 314.35 163.64 314.35 166.68" style="fill:#fff"></polygon><polygon points="314.35 172.41 296.24 181.99 296.24 178.95 314.35 169.37 314.35 172.41" style="fill:#fff"></polygon><rect x="228.81" y="106.4" width="42.36" height="42.36" style="fill:#455a64"></rect><path d="M274.52,152.11H225.46V103.05h49.06Zm-48.06-1h47.06V104.05H226.46Z" style="fill:#455a64"></path><rect x="234.55" y="119.96" width="30.87" height="18.87" style="fill:#fff"></rect><polygon points="257.66 119.96 242.32 119.96 243.84 116.33 256.14 116.33 257.66 119.96" style="fill:#fff"></polygon><path d="M257.15,129.39a7.16,7.16,0,1,1-7.16-7.16A7.15,7.15,0,0,1,257.15,129.39Z" style="fill:#455a64"></path><path d="M255.55,129.39a5.56,5.56,0,1,1-5.56-5.56A5.56,5.56,0,0,1,255.55,129.39Z" style="fill:#fff"></path><rect x="260.64" y="121.56" width="2.97" height="1.71" style="fill:#455a64"></rect><rect x="235.59" y="118.56" width="2.94" height="0.85" style="fill:#fff"></rect><rect x="283.32" y="106.4" width="42.36" height="42.36" style="fill:#BA68C8"></rect><rect x="289.41" y="118.01" width="30.18" height="19.14" style="fill:#fff"></rect><path d="M319.59,118c-1.22,1.17-2.46,2.28-3.69,3.43s-2.48,2.25-3.72,3.36l-3.92,3.44a1.14,1.14,0,0,1-.11.11l-3.48,3-.17.14-.17-.14-3.47-3-.12-.11q-2-1.71-3.92-3.45c-1.24-1.1-2.48-2.23-3.72-3.35s-2.47-2.26-3.69-3.43c1.3,1,2.57,2,3.85,3.07s2.56,2.09,3.83,3.15,2.83,2.36,4.24,3.56h0l3.17,2.69,3.17-2.69h0q2.11-1.8,4.24-3.57,1.9-1.57,3.82-3.14C317,120.06,318.29,119,319.59,118Z" style="fill:#BA68C8"></path><path d="M301.37,128.23l0,0c-.15.14-.31.27-.47.4-.76.64-1.53,1.26-2.32,1.85-1,.73-2,1.44-2.93,2.13s-2,1.37-3,2-2.05,1.29-3.12,1.88c.92-.81,1.87-1.55,2.83-2.28s1.95-1.44,2.93-2.14,2-1.37,3-2c.81-.52,1.63-1,2.48-1.51.19-.12.39-.22.59-.33Z" style="fill:#BA68C8"></path><path d="M319.52,136.54c-1.07-.59-2.1-1.23-3.12-1.88s-2-1.33-3-2-2-1.4-2.93-2.13c-.79-.59-1.56-1.2-2.31-1.84-.17-.14-.33-.27-.48-.41l0,0,0,0c.2.12.4.22.59.34.85.48,1.67,1,2.48,1.51,1,.65,2,1.33,3,2s2,1.4,2.93,2.14S318.6,135.73,319.52,136.54Z" style="fill:#BA68C8"></path><rect x="228.81" y="215.42" width="42.36" height="42.36" style="fill:#263238"></rect><path d="M263.07,233.13a7,7,0,1,1-7-7A7,7,0,0,1,263.07,233.13Z" style="fill:#BA68C8"></path><path d="M256.64,223.52c0,.88-.24,1.59-.53,1.59s-.52-.71-.52-1.59.23-1.58.52-1.58S256.64,222.65,256.64,223.52Z" style="fill:#BA68C8"></path><path d="M251.76,224.55c.44.76.59,1.49.34,1.63s-.81-.35-1.24-1.11-.59-1.49-.34-1.63S251.33,223.79,251.76,224.55Z" style="fill:#BA68C8"></path><path d="M248.06,227.87c.75.44,1.25,1,1.11,1.25s-.88.1-1.64-.34-1.25-1-1.11-1.25S247.3,227.44,248.06,227.87Z" style="fill:#BA68C8"></path><ellipse cx="246.51" cy="233.13" rx="1.58" ry="0.52" style="fill:#BA68C8"></ellipse><path d="M247.53,237.48c.76-.44,1.49-.59,1.64-.34s-.36.81-1.11,1.24-1.49.59-1.64.34S246.78,237.91,247.53,237.48Z" style="fill:#BA68C8"></path><path d="M250.86,241.18c.43-.75,1-1.25,1.24-1.1s.1.87-.34,1.63-1,1.25-1.24,1.11S250.42,241.94,250.86,241.18Z" style="fill:#BA68C8"></path><ellipse cx="256.11" cy="242.73" rx="0.52" ry="1.58" style="fill:#BA68C8"></ellipse><path d="M260.46,241.71c-.44-.76-.59-1.49-.34-1.63s.81.35,1.25,1.1.59,1.49.34,1.64S260.9,242.47,260.46,241.71Z" style="fill:#BA68C8"></path><path d="M264.17,238.38c-.76-.43-1.26-1-1.11-1.24s.87-.1,1.63.34,1.26,1,1.11,1.24S264.93,238.82,264.17,238.38Z" style="fill:#BA68C8"></path><ellipse cx="265.72" cy="233.13" rx="1.58" ry="0.52" style="fill:#BA68C8"></ellipse><path d="M264.69,228.78c-.76.44-1.49.59-1.63.34s.35-.81,1.11-1.25,1.49-.59,1.63-.34S265.45,228.34,264.69,228.78Z" style="fill:#BA68C8"></path><path d="M261.37,225.07c-.44.76-1,1.26-1.25,1.11s-.1-.87.34-1.63,1-1.25,1.25-1.11S261.81,224.32,261.37,225.07Z" style="fill:#BA68C8"></path><path d="M265.19,247.07a4.2,4.2,0,0,1-3.87,4.18H237.6a4.92,4.92,0,0,1-.46-9.82,8.29,8.29,0,0,1,16.07-2.6,4.92,4.92,0,0,1,7.11,4.1,3.82,3.82,0,0,1,.68-.06A4.19,4.19,0,0,1,265.19,247.07Z" style="fill:#fff"></path><path d="M238.31,397.93a2.56,2.56,0,1,1-2.55-2.56A2.55,2.55,0,0,1,238.31,397.93Z" style="fill:#dbdbdb"></path><circle cx="250" cy="397.93" r="3.87" style="fill:#BA68C8"></circle><path d="M266.8,397.93a2.56,2.56,0,1,1-2.56-2.56A2.56,2.56,0,0,1,266.8,397.93Z" style="fill:#dbdbdb"></path><rect x="228.82" y="269.91" width="42.36" height="42.36" style="fill:#37474f"></rect><path d="M243.7,295.67h-5.65v-6.49h5.54c0-.49.06-.88.06-1.26,0-1.7,0-3.42.13-5.11.35-3.72,2.64-6.35,6.32-6.86a53.67,53.67,0,0,1,7.07-.05v5.9c-.86,0-1.71,0-2.56,0a12.2,12.2,0,0,0-2.27.15,2.13,2.13,0,0,0-1.8,2.06c-.07,1.65,0,3.31,0,5.11H257c-.27,2.12-.5,4.09-.81,6.05,0,.19-.52.43-.8.44-1.55,0-3.11,0-4.79,0v16.64H243.7Z" style="fill:#fff"></path><path d="M275.26,272.31a6.38,6.38,0,1,1-6.38-6.37A6.38,6.38,0,0,1,275.26,272.31Z" style="fill:#BA68C8"></path><path d="M271.24,275.3a.54.54,0,0,1-.55.55h-3.6a.56.56,0,0,1-.39-1l3-2.71a1.26,1.26,0,0,0,.42-1,1.34,1.34,0,0,0-.33-.88,1.3,1.3,0,0,0-1-.42,1.32,1.32,0,0,0-.88.33l-.32.29a.56.56,0,0,1-.74-.83l.31-.29a2.39,2.39,0,0,1,1.63-.62,2.47,2.47,0,0,1,1.8.79,2.44,2.44,0,0,1-.18,3.43l-1.91,1.73h2.16A.55.55,0,0,1,271.24,275.3Z" style="fill:#fff"></path><rect x="283.32" y="269.91" width="42.36" height="42.36" style="fill:#263238"></rect><path d="M290.42,305.06c.6-2.17,1.14-4.19,1.74-6.19a2.22,2.22,0,0,0-.17-1.78,14,14,0,1,1,26.58-5.78,14.08,14.08,0,0,1-13.22,13.45,15,15,0,0,1-6.92-1.3,2.24,2.24,0,0,0-1.33-.11C294.93,303.87,292.77,304.45,290.42,305.06Zm3.39-3.29c1.38-.35,2.54-.69,3.73-.94a2,2,0,0,1,1.23.16,12.45,12.45,0,0,0,5.63,1.47c7.19.12,13-6.55,11.62-13.56a10.9,10.9,0,0,0-8.74-9.12,11.08,11.08,0,0,0-12.11,4.53c-2.92,4-3,8.28-.61,12.62a2.22,2.22,0,0,1,.17,1.37C294.5,299.42,294.15,300.52,293.81,301.77Z" style="fill:#fff"></path><path d="M298.43,285.36c.95-1.28,2.22-1,2.89.38.26.55.32.74.57,1.37a1.69,1.69,0,0,1-.39,2.2.88.88,0,0,0-.1,1.35,9.81,9.81,0,0,0,4.23,3.58.94.94,0,0,0,1.29-.28c1.22-1.47,1.24-1.45,3-.64l.6.29a1.62,1.62,0,0,1,.45,2.89,3.91,3.91,0,0,1-3.91.95,14.22,14.22,0,0,1-8.48-6.45,5.36,5.36,0,0,1-1.06-3.16A4.59,4.59,0,0,1,298.43,285.36Z" style="fill:#fff"></path></g></svg>